<svg xmlns="http://www.w3.org/2000/svg" xmlns:xlink="http://www.w3.org/1999/xlink" version="1.1" width="256" height="256" viewBox="0 0 256 256" xml:space="preserve">
<desc>Created with Fabric.js 1.7.22</desc>
<defs>
</defs>
<g transform="translate(128 128) scale(0.72 0.72)" style="">
	<g style="stroke: none; stroke-width: 0; stroke-dasharray: none; stroke-linecap: butt; stroke-linejoin: miter; stroke-miterlimit: 10; fill: none; fill-rule: nonzero; opacity: 1;" transform="translate(-175.05 -175.05000000000004) scale(3.89 3.89)" >
	<path d="M 74.113 0 H 15.886 c -1.105 0 -2 0.895 -2 2 v 86 c 0 0.759 0.43 1.453 1.109 1.791 c 0.282 0.14 0.587 0.209 0.89 0.209 c 0.428 0 0.854 -0.138 1.208 -0.405 l 25.669 -19.432 c 1.324 -1.002 3.152 -1.002 4.476 0 l 25.668 19.432 c 0.606 0.458 1.418 0.533 2.098 0.196 c 0.68 -0.338 1.109 -1.032 1.109 -1.791 V 2 C 76.113 0.895 75.218 0 74.113 0 z" style="stroke: none; stroke-width: 1; stroke-dasharray: none; stroke-linecap: butt; stroke-linejoin: miter; stroke-miterlimit: 10; fill: rgb(0,0,0); fill-rule: nonzero; opacity: 1;" transform=" matrix(1 0 0 1 0 0) " stroke-linecap="round" />
</g>
</g>
</svg>