<svg fill="#000000" xmlns="http://www.w3.org/2000/svg"  viewBox="0 0 50 50" width="50px" height="50px"><path d="M 10 6 A 1.0001 1.0001 0 0 0 9 7 L 9 43 A 1.0001 1.0001 0 0 0 10 44 L 18 44 C 19.64497 44 21 42.64497 21 41 L 21 35 L 27.119141 35 C 34.900453 35 41.616549 29.008537 41.984375 21.199219 C 42.375518 12.890922 35.728135 6 27.5 6 L 10 6 z M 11 8 L 27.5 8 C 34.615865 8 40.325186 13.907765 39.986328 21.105469 C 39.670154 27.81815 33.875828 33 27.119141 33 L 20 33 A 1.0001 1.0001 0 0 0 19 34 L 19 41 C 19 41.56503 18.56503 42 18 42 L 11 42 L 11 8 z"/></svg>